<svg xmlns="http://www.w3.org/2000/svg" viewBox="0 0 239.56 239.28"><defs><style>.cls-1{isolation:isolate;}.cls-2{fill:#00736f;}.cls-12,.cls-3,.cls-7,.cls-8{fill:none;stroke-linecap:round;stroke-linejoin:round;}.cls-3,.cls-7{stroke:#004c4a;}.cls-3{stroke-width:10px;opacity:0.2;}.cls-11,.cls-3{mix-blend-mode:multiply;}.cls-11,.cls-4{opacity:0.3;}.cls-5{fill:#ccfffd;}.cls-6{fill:#004c4a;}.cls-7{stroke-width:16px;}.cls-12,.cls-8{stroke:#ccfffd;}.cls-8{stroke-width:8px;}.cls-9{fill:#f9f9f9;}.cls-10{fill:#35752e;}</style></defs><g class="cls-1"><g id="Camada_2" data-name="Camada 2"><g id="Erros"><g id="pesquisa_falhou" data-name="pesquisa falhou"><ellipse class="cls-2" cx="119.78" cy="119.64" rx="119.78" ry="119.64"/><path class="cls-3" d="M185.24,174.79a6.74,6.74,0,0,0-.44-1.47,5.72,5.72,0,0,0-1-1.56,8.11,8.11,0,0,0-1.5-1.24c-.22-.16-.47-.28-.7-.43a11,11,0,0,0-2.46-1.32,7.18,7.18,0,0,0-1.29-.33,4.93,4.93,0,0,0-1.21-.13,2.27,2.27,0,0,0-.93.18,1.53,1.53,0,0,0-.21.14l-.26.1,0,0-.48.13-.12,0-.33,0-.26,0h-.42c-.12,0-.24,0-.25,0h0c.14-.17.27-.36.41-.53a19.56,19.56,0,0,0,2.18-3.39l.06-.14a19.86,19.86,0,0,0,.87-2.08,19.33,19.33,0,0,0,1.11-5.32,12.78,12.78,0,0,0,0-1.75,6.25,6.25,0,0,0-.38-1.7,5.78,5.78,0,0,0-4.06-3.42,5.32,5.32,0,0,0-.78-.14,6.39,6.39,0,0,0-1.07,0h0a6.82,6.82,0,0,0-1,.14,15.35,15.35,0,0,0-2,.59l-.95.37c-.33.12-.66.26-1,.4l-1,.39-1,.43-.51.23-.09,0a1.2,1.2,0,0,0-.34.16l.11-.3a2.43,2.43,0,0,1,.14-.28,10.42,10.42,0,0,0,.37-1c.23-.55.49-1.1.75-1.64a19.2,19.2,0,0,0,2-4.93,7,7,0,0,0,.06-1.77,5.46,5.46,0,0,0-.41-1.55,6.46,6.46,0,0,0-5.53-3.79,7.36,7.36,0,0,0-6.83,4.52c-.71-.5-.46-1.43,0-2.28.14-.28.3-.55.45-.79a7.31,7.31,0,0,0,1-4.71A5.5,5.5,0,0,0,154,131.1a4.21,4.21,0,0,0-.48-.35,5.18,5.18,0,0,0-1.86-.72,7.69,7.69,0,0,0-3.72.36c-.34.11-.67.24-1,.38l-.27.12a8.87,8.87,0,0,0-.92.48h0l-.52.34a53.44,53.44,0,1,0-3.25,2.64c-.23.23-.46.46-.68.7l-.28.3c-.31.35-.63.7-.93,1.06-.06.07-.12.13-.17.2l-.14.17c-.28.34-.56.68-.83,1s-.38.47-.58.7-.41.32-.47.5a.92.92,0,0,0,0,.16c-1.31,1.71-2.59,3.44-4,5a25.83,25.83,0,0,1-2.27,2.29c-.4.35-.87.65-1.25,1-1.6,1.52-3,3.31-4.59,4.89A96.09,96.09,0,0,1,111.66,164c-.24-.1-.46-.2-.7-.28a5.67,5.67,0,0,0-5.11.43,4.91,4.91,0,0,0-1.68,4.55c-4.69,2.73-9.56,5.21-14.53,7.55-7.24,3.41-14.63,6.5-22,9.65-6.31,2.7-12.49,5.88-18.85,8.43-2.87,1.15-5.43,3.09-8.33,4.29-.74.31,3.23,5.13,3.64,5.48a12.33,12.33,0,0,0,2.82,1.76,14,14,0,0,1,2.68,1.78,26,26,0,0,1,2.15,1.71c.09.11.18.22.27.31.54.56,1.1,1.07,1.69,1.59l.13.11c.55.49,1.13,1,1.72,1.41l.15.1c.56.41,1.13.79,1.71,1.16l.15.1.52.31c.42.25.84.51,1.27.75l.84.47,1.14.61,1,.51,1.11.57c.88.44,1.76.89,2.63,1.35h0c1.8.95,3.62,1.87,5.44,2.77a140.11,140.11,0,0,0,16.89,7.07,78,78,0,0,0,11.35,3.09,10.45,10.45,0,0,0,1.46.2,2.8,2.8,0,0,0,.5,0c1.16-.07,2.33-.38,3.5-.5a19.33,19.33,0,0,0,2.53-.41,29.22,29.22,0,0,0,3.67-1.1c.81-.3,1.6-.62,2.39-1l1.17-.51c1.36-.61,2.72-1.23,4.06-1.87q2.39-1.16,4.72-2.37c.7-.36,1.39-.74,2.08-1.11l2.39-1.31c.92-.51,1.83-1,2.73-1.55l1.43-.84c1.08-.64,2.16-1.28,3.23-1.94h0a.25.25,0,0,1,0,.07,2.33,2.33,0,0,0,.89,1.36,1.8,1.8,0,0,0,.87.29c1.42.12,3.23-1.12,4.1-2.49a3.7,3.7,0,0,0,.42-.91,5.24,5.24,0,0,0,.16-.88,2.91,2.91,0,0,0,0-.31c0-.22,0-.45,0-.67s0-.41,0-.62h0c1.39-.94,2.78-1.88,4.16-2.84l.11-.07c1.32-.93,2.64-1.86,3.94-2.8l.85-.62c1.08-.79,2.16-1.58,3.22-2.38,1.41-1.05,2.81-2.12,4.21-3.19,6.22-4.82,12.29-9.84,18.31-14.91,1.32-1.12,2.7-2.17,4-3.26a17.27,17.27,0,0,0,2.58-2.2c.06-.07.13-.13.18-.2a7.25,7.25,0,0,0,.51-.8,8,8,0,0,0,.57-1.22c.09-.22.18-.44.25-.66A6.59,6.59,0,0,0,185.24,174.79Z"/><g class="cls-4"><ellipse class="cls-5" cx="105.17" cy="94.23" rx="52.85" ry="52.79" transform="translate(-3.36 3.89) rotate(-2.08)"/></g><path class="cls-6" d="M105.21,41.44v10A42.79,42.79,0,0,1,106.73,137c-.53,0-1.07,0-1.6,0a42.79,42.79,0,0,1-1.52-85.55c.53,0,1.07,0,1.6,0v-10m0,0c-.65,0-1.31,0-2,0A52.79,52.79,0,0,0,105.13,147c.65,0,1.3,0,2,0a52.79,52.79,0,0,0-1.88-105.54Z"/><line class="cls-7" x1="135.32" y1="139.01" x2="172.8" y2="191"/><path class="cls-8" d="M90.5,84.45c-1.43-3.62.34-8,3.43-10.34s7.21-3,11.11-2.79c4.43.28,9.34,2.16,10.88,6.33,1.28,3.46-.2,7.34-2.27,10.39s-4.76,5.7-6.34,9a17,17,0,0,0-1.5,8.73"/><circle class="cls-5" cx="106.91" cy="119.42" r="4.77"/><path class="cls-9" d="M84.64,178.23c13.27-6.24,25.83-13.48,36.14-23.83,1.56-1.58,3-3.37,4.59-4.89.38-.36.85-.66,1.25-1a25.83,25.83,0,0,0,2.27-2.29c1.45-1.62,2.74-3.37,4.07-5.1,2.23-2.91,4.6-5.85,7.81-7.74,2.36-1.39,5.46-2.09,7.77-.62,2.73,1.73,3,5.9,1.32,8.65-.61,1-1.36,2.4-.42,3.07a7.36,7.36,0,0,1,6.83-4.52,6.32,6.32,0,0,1,5.94,5.35c.25,2.4-1,4.61-2,6.69-.26.54-.52,1.09-.75,1.64a10.42,10.42,0,0,1-.37,1,3,3,0,0,0-.25.58c0-.06.37-.17.43-.19l.51-.23,1-.43c.66-.27,1.32-.54,2-.79a13.46,13.46,0,0,1,3.93-1.1,6.39,6.39,0,0,1,1.07,0,5.86,5.86,0,0,1,4.84,3.56,8.21,8.21,0,0,1,.39,3.45,19.67,19.67,0,0,1-4.63,11.46l.75,0a4.28,4.28,0,0,0,1.13-.23c.33-.1.64-.28,1-.35a4,4,0,0,1,1,0,6.73,6.73,0,0,1,1.94.42,12.68,12.68,0,0,1,3.56,2.15,9.68,9.68,0,0,1,1.25,1.15,6.26,6.26,0,0,1,1.12,6,11.57,11.57,0,0,1-1.26,2.54,13.22,13.22,0,0,1-2.83,2.54c-1.34,1.09-2.72,2.14-4,3.26-6,5.07-12.09,10.09-18.31,14.91-12.38,9.57-25.42,18.41-39.56,25.19-1.34.64-2.7,1.26-4.06,1.87a31.89,31.89,0,0,1-9.76,3c-1.17.12-2.34.43-3.5.5a7.58,7.58,0,0,1-2-.19,78,78,0,0,1-11.35-3.09,153.08,153.08,0,0,1-22.33-9.84c-4.81-2.53-9.79-4.64-13.6-8.64a21,21,0,0,0-2.89-2.43,14,14,0,0,0-2.68-1.78,12.33,12.33,0,0,1-2.82-1.76c-.41-.35-4.38-5.17-3.64-5.48,2.9-1.2,5.46-3.14,8.33-4.29,6.36-2.55,12.54-5.73,18.85-8.43C70,184.73,77.4,181.64,84.64,178.23Z"/><path class="cls-10" d="M103.31,177.54a16.73,16.73,0,0,1-3.81-5.37c-.74-2.08-.43-4.72,1.35-6a5.67,5.67,0,0,1,5.11-.43c3.28,1.1,5.74,3.81,7.88,6.52,8.9,11.23,15.16,24.27,21.35,37.19,1.24,2.6,2.52,5.48,1.75,8.25-.67,2.42-5.29,5.29-6.28,1.75-1-3.69-3.11-7.16-4.94-10.51a158.85,158.85,0,0,0-13.5-20.74Q108,182.66,103.31,177.54Z"/><g class="cls-11"><path class="cls-6" d="M145.56,131.94a9.82,9.82,0,0,0-4.79,1.43,22.94,22.94,0,0,0-5.83,5.24c-.37.44-.73.9-1.09,1.35a.82.82,0,0,0-.11.17c0,.05,0,.09-.05.14l2.66-1.59a8.17,8.17,0,0,0,2.05-1.54,5,5,0,0,1,.71-.58c.36-.31.7-.65,1.07-.95a6.49,6.49,0,0,1,3.9-1.67,3.67,3.67,0,0,1,.66.05c2.1.38,3.46,2.6,3.58,4.73a14.47,14.47,0,0,1-1.49,6.17,2.37,2.37,0,0,0,1.81.72,4.89,4.89,0,0,0,2.21-.59c1.28-.67,2.43-1.69,3.86-1.92a2.84,2.84,0,0,1,.58,0c2.34,0,4.39,2.29,4.56,4.69.19,2.59-1.29,5-3.19,6.83a2.43,2.43,0,0,0,2.59,1.57,5,5,0,0,0,2-.43c1.51-.68,3-1.8,4.58-1.8a3.11,3.11,0,0,1,.43,0c1.83.23,3.13,2.06,3.38,3.89a12.86,12.86,0,0,1-.84,5.43l-3.09,10a3.43,3.43,0,0,1,1.08-.17c2.85,0,5.28,3.39,4.93,6.42-.39,3.4-3,6.1-5.52,8.41a122.83,122.83,0,0,1-35.68,22.6c.7,1.17-.19,2.75-1.41,3.36a11.9,11.9,0,0,1-4,.71c-3.35.35-6.44,1.87-9.58,3.1a64.9,64.9,0,0,1-23.71,4.25A81.41,81.41,0,0,1,79.73,221c-12-1.81-23.5-6-34.47-11.22A11.11,11.11,0,0,1,47,211.64c.54.56,1.1,1.07,1.69,1.59a27.09,27.09,0,0,0,3.86,2.88c2.73,1.72,5.67,3.08,8.52,4.58a153.08,153.08,0,0,0,22.33,9.84,78,78,0,0,0,11.35,3.09,9.52,9.52,0,0,0,1.67.2h.29c1.16-.07,2.33-.38,3.5-.5a31.89,31.89,0,0,0,9.76-3c1.36-.61,2.72-1.23,4.06-1.87a176.78,176.78,0,0,0,16.58-9.13.25.25,0,0,1,0,.07,2,2,0,0,0,2,1.66,5.37,5.37,0,0,0,4.33-3.41,6.71,6.71,0,0,0,.18-2.48c5.64-3.76,11.14-7.76,16.5-11.9,6.22-4.82,12.29-9.84,18.31-14.91.43-.36.86-.72,1.3-1.07,1.07-.87,2.17-1.72,3.24-2.6.53-.44,1.06-.88,1.57-1.34a3.88,3.88,0,0,0,.69-.65,7.25,7.25,0,0,0,.51-.8,8.05,8.05,0,0,0,1.1-3.6,6.65,6.65,0,0,0-.54-3,5.72,5.72,0,0,0-1-1.56,8.11,8.11,0,0,0-1.5-1.24,16.66,16.66,0,0,0-3.12-1.66c-.19-.08-.39-.15-.58-.21a5.63,5.63,0,0,0-1.81-.34h-.15a2.27,2.27,0,0,0-.93.18,2.33,2.33,0,0,1-.26.17,4.12,4.12,0,0,1-1,.27,3.68,3.68,0,0,1-.58,0h0s-.35,0-.46,0h0A19.67,19.67,0,0,0,173,159.48a8.21,8.21,0,0,0-.39-3.45,5.86,5.86,0,0,0-4.84-3.56q-.33,0-.66,0h-.41a13.46,13.46,0,0,0-3.93,1.1c-.66.25-1.32.52-2,.79l-1,.43-.51.23c-.06,0-.41.13-.43.19a3,3,0,0,1,.25-.58,10.42,10.42,0,0,0,.37-1c.23-.55.49-1.1.75-1.64,1-2.08,2.26-4.29,2-6.7a6.32,6.32,0,0,0-5.94-5.34H156a7.42,7.42,0,0,0-6.59,4.53c-.94-.67-.19-2.1.42-3.07,1.72-2.75,1.41-6.92-1.32-8.65a5.5,5.5,0,0,0-3-.81Z"/></g><path class="cls-12" d="M184.15,91.51a3.15,3.15,0,0,1,2.58-3,4.63,4.63,0,0,1,4,1.31,3.76,3.76,0,0,1,1.06,1.63c.47,1.67-.71,3.3-1.74,4.69s-2,3.26-1.13,4.76"/><path class="cls-12" d="M188.65,105.62h.7"/><path class="cls-12" d="M83.9,20.24a3.61,3.61,0,0,1,1.15-2.16c1.19-.84,3,.15,3.46,1.52a7.22,7.22,0,0,1-.26,4.3l2.28.89"/><path class="cls-12" d="M93.35,25.5v.71"/><path class="cls-12" d="M20.11,82.56a2.63,2.63,0,0,1,1-3.55,2.93,2.93,0,0,1,3.66,1,3.33,3.33,0,0,1-.21,3.86c-1,1.28-3.07,2.17-2.82,3.79"/><path class="cls-12" d="M20.65,90.44H21.7"/><path class="cls-12" d="M47.54,168.19a2.6,2.6,0,0,1,4.81,1.59c-.19,2.24-3.17,4-2.4,6.08"/><path class="cls-12" d="M48.53,179l1.06.35"/><path class="cls-12" d="M169,30c1.78,1.11,3.82,2.81,3.3,4.84-.41,1.57-2.14,2.33-3.58,3.09s-3,2.22-2.42,3.76"/><path class="cls-12" d="M163.23,46.68l.71-.36"/><path class="cls-12" d="M193,153.65a7.73,7.73,0,0,1,1.31-2.41,2.57,2.57,0,0,1,2.46-.89c1.71.46,1.9,2.87,1.29,4.52s-1.68,3.37-1.19,5.07"/><path class="cls-12" d="M197.12,163.5h.7"/><g class="cls-11"><path class="cls-6" d="M119.78,16C177,16,223.56,62.49,223.56,119.64S177,223.28,119.78,223.28,16,176.79,16,119.64,62.56,16,119.78,16m0-16A119.64,119.64,0,1,0,239.56,119.64,119.71,119.71,0,0,0,119.78,0Z"/></g><path class="cls-6" d="M119.78,6A113.64,113.64,0,1,1,39.32,200,113.64,113.64,0,0,1,119.78,6m0-6A119.64,119.64,0,1,0,239.56,119.64,119.71,119.71,0,0,0,119.78,0Z"/></g></g></g></g></svg>