<svg xmlns="http://www.w3.org/2000/svg" viewBox="0 0 240 239.36"><defs><style>.cls-1{isolation:isolate;}.cls-2{fill:#179995;}.cls-3{opacity:0.2;mix-blend-mode:multiply;}.cls-4{fill:#004c4a;}.cls-5{fill:#00736f;}.cls-6{fill:#f9f9f9;}.cls-7{fill:#232121;}.cls-8{fill:#35752e;}.cls-9{fill:#606060;}.cls-10,.cls-13{fill:none;}.cls-10,.cls-11,.cls-13{stroke:#ccfffd;stroke-miterlimit:10;}.cls-10,.cls-11{stroke-width:0.5px;}.cls-11,.cls-12{fill:#ccfffd;}.cls-13{stroke-width:0.25px;}</style></defs><g class="cls-1"><g id="Camada_2" data-name="Camada 2"><g id="Erros"><g id="sem_itens" data-name="sem itens"><ellipse class="cls-2" cx="120" cy="119.68" rx="120" ry="119.68"/><g class="cls-3"><path class="cls-4" d="M238,125.7a2.06,2.06,0,0,0-1.44-.49l-4.05-.33-.2,0a11.72,11.72,0,0,0-1.44-.15l-.22,0a105.78,105.78,0,0,1-16.79-2.2c-10.13-2.45-18.68-7.68-28.29-11.16a41.3,41.3,0,0,0-12-2.68c-4.19-.2-8.58.59-11.78,2.66a21.15,21.15,0,0,0-5.81,6.38l-3.78,5.57c-1.76,2.58-4.2,5.51-8,5.6a7.17,7.17,0,0,1-2.58-.43,25.82,25.82,0,0,0,1.38-3.3l0-.11c.15-.42.28-.86.4-1.29s.23-.88.32-1.32c0-.14.07-.29.1-.44h.08a1.18,1.18,0,0,0,.31-.24.35.35,0,0,0,.1-.32.39.39,0,0,0-.16-.22h0a.62.62,0,0,0-.29-.12h0a8,8,0,0,0-.24-1.08c-.5-1.61-1-3.21-1.51-4.81q-.26-.83-.54-1.65a19.91,19.91,0,0,0-.83-2.1c-.15-.35-.32-.68-.5-1s-.38-.65-.59-1a8.45,8.45,0,0,0-.8-1,1.74,1.74,0,0,0,.11-.18s0,0,0,0a.88.88,0,0,0,.07-.23.67.67,0,0,0,0-.28.84.84,0,0,0-.37-.44,1.22,1.22,0,0,0-.27-.09,1,1,0,0,0-.35,0l-.06,0a1.08,1.08,0,0,0-.3.16h0l-.19-.12a.8.8,0,0,1,0-.27,1.9,1.9,0,0,0,0-.53.35.35,0,0,0-.13-.19.42.42,0,0,0-.19-.06h0a7.77,7.77,0,0,0,2.12-2v0a6.25,6.25,0,0,0,.51-.82l.06-.11c.13-.26.25-.51.36-.78l.09-.27c.08-.23.16-.45.22-.69s.06-.32.1-.49.07-.33.09-.51a6.63,6.63,0,0,0,.07-1v0a7.3,7.3,0,0,0-.06-.94l0-.24c0-.23-.08-.46-.13-.69l-.06-.25c-.06-.24-.14-.48-.22-.71a1.34,1.34,0,0,0-.07-.18,7.75,7.75,0,0,0-.37-.83s0,0,0,0l-.06-.1q-.21-.37-.45-.72l-.14-.19a9.25,9.25,0,0,0-.63-.75l0,0a6.86,6.86,0,0,0-.7-.63l-.19-.15a6.19,6.19,0,0,0-.75-.51l0,0h0a7,7,0,0,0-.87-.42l-.24-.09a7.24,7.24,0,0,0-.79-.25.35.35,0,0,1-.11,0h0a7.87,7.87,0,0,0-1.2-.15,1.29,1.29,0,0,0-.44,0l-.08,0a7.55,7.55,0,0,0-6.75,4.63,1.81,1.81,0,0,0-.18.21,3.76,3.76,0,0,0-.28,1.12.8.8,0,0,1,0,.15c0,.22-.08.43-.11.65s0,.17,0,.25c0,.31-.05.62-.05.93a8.2,8.2,0,0,0,.26,2.09,7.57,7.57,0,0,0,2,3.52l0,0,.09.11a11.81,11.81,0,0,0,1.55,1.19l.19.14-.22,0a.6.6,0,0,0-.55.42.61.61,0,0,0,.34.63h-.13a.66.66,0,0,0-.43-.32,4.6,4.6,0,0,0-.32.45,13.71,13.71,0,0,0-2.54,1l-1.49.68c-.48.23-1,.45-1.47.67l-.85.39a2.48,2.48,0,0,1-.37.17c0-.1,0-.19,0-.28a.36.36,0,0,0-.11-.22.29.29,0,0,0-.32,0,1.15,1.15,0,0,0-.4.39c-.44-.07-.87-.19-1.31-.29a20.45,20.45,0,0,0-3.89-.53c-.61,0-1.23,0-1.84,0,0-.06,0-.12,0-.17a.88.88,0,0,0-.54-.8.85.85,0,0,0-.89.47c-.09,0-.19-.08-.28-.14-.35-.22-.67-.49-1-.7a5.94,5.94,0,0,0-3.83-.57,2,2,0,0,0-1,.31,1,1,0,0,0-.37.53l-.07,0a.48.48,0,0,0-.06.72,3.7,3.7,0,0,0,.88.41c.58.28,1.17.55,1.76.79a10.11,10.11,0,0,0,1.83.55c.27,0,.54.08.8.11s.64.07,1,.12h0l0,.61c0,.09,0,.11.08.13a.35.35,0,0,1,.15.1,1.23,1.23,0,0,0,.89-.57h0l.77.32c.41.17.83.34,1.26.49.68.25,1.38.47,2.08.66a24.25,24.25,0,0,0,2.53.55l.68.11.34.06a.41.41,0,0,0,.18.13h.16l.07,0,.06,0a.71.71,0,0,0,.07-.09h0l.09,0c.21,0,.43,0,.64,0h0l2.9,0h0a3,3,0,0,1,.73.1.66.66,0,0,1,.19.09l0,0,0,0a.74.74,0,0,1,.14.85c-.17.5-.36,1-.53,1.49-.35,1-.68,2.06-1,3.09v0a1.15,1.15,0,0,1-.06-.17c0,.07-.45.53-.51.61s-.31.43-.45.65a7.24,7.24,0,0,0-.41.71,2.29,2.29,0,0,0-.31.65.86.86,0,0,0,0,.27,5.55,5.55,0,0,1-2.95.26c-.87-.06-1.73-.09-2.6-.12a5.89,5.89,0,0,0-1.45.08v-.26a1.88,1.88,0,0,0-1.1,0,.4.4,0,0,0-.24.14.55.55,0,0,0,0,.44c0,.14.07.27.1.41a7.33,7.33,0,0,0-.57.55l-1.31,1.38-2.64,2.78c-.53.56-1.07,1.12-1.6,1.69-.07.07-.15.14-.22.22a.78.78,0,0,0-.4-.06.48.48,0,0,0-.41.59,7,7,0,0,1-.69.21l-2.4.59a2.12,2.12,0,0,0-1,.43,1.92,1.92,0,0,0-.36,1.51.49.49,0,0,0,0,.21.35.35,0,0,0,.21.17,2.66,2.66,0,0,0,1.55.19c.29,0,.58-.14.87-.19a3,3,0,0,1,2,.65,1.44,1.44,0,0,0,1.55.09,1.51,1.51,0,0,0,.21-.23,2.53,2.53,0,0,0,.18-.27c.14-.22.27-.44.41-.65a1,1,0,0,1,.15-.2.9.9,0,0,0,.14-.2l.1-.21a.72.72,0,0,1,.11-.19l.05-.06,0,0,.09.1a.35.35,0,0,0,.19.1H111a.1.1,0,0,0,0,0s0,0,0,0a.11.11,0,0,0,0-.06v0s0-.05,0-.08a0,0,0,0,1,0,0,.47.47,0,0,0,0-.1.41.41,0,0,0,0-.09h0l-.06-.09h0l.23-.24c.29-.28.59-.54.89-.79s.63-.5,1-.74l1-.72a7.57,7.57,0,0,0,1-.83.83.83,0,0,0,.12-.16l.09-.18a1.68,1.68,0,0,1,.42-.42,2.84,2.84,0,0,1,2-.41l.63.06c.21,0,.41,0,.62,0,.41,0,.83,0,1.24,0h1.23c.57,0,1.14,0,1.72,0l.74,0h.16a2.37,2.37,0,0,1,.29.25l.18.13a.8.8,0,0,1-.34.41,13.9,13.9,0,0,0-4.52,5.89c0,.09-.07.19-.11.29-.22,0-.45,0-.57.17a1.32,1.32,0,0,0-.11.68,1.34,1.34,0,0,0,.37.94.38.38,0,0,0,.33.07l.18,0,.35.58.72,1.28c.47.86.92,1.73,1.36,2.61a6.28,6.28,0,0,1,.27.59.36.36,0,0,0-.07.1c-.21.44,0,.67.27.72a1.71,1.71,0,0,1,0,.32,3.77,3.77,0,0,1-.39,1.11,3.78,3.78,0,0,0-.38,2.25,1.54,1.54,0,0,0,1.6,1.29,1.69,1.69,0,0,0,1-.75h0a5.21,5.21,0,0,0,.82-1.67h0l.79-2c.05-.13.1-.26.14-.39a1.45,1.45,0,0,0,.06-.41,1,1,0,0,0-.08-.38l0-.09a2,2,0,0,0-.17-.32l-.07-.09c-.06-.07-.11-.15-.18-.22l-.34-.41h0l.1-.17h0a1,1,0,0,0,.06-.16s0,0,0,0a.76.76,0,0,0,0-.15s0,0,0-.05a1.16,1.16,0,0,0,0-.18v0a.36.36,0,0,0-.18-.07h-.19a1.09,1.09,0,0,0-.24.07h0a4.84,4.84,0,0,1-.14-.51s0-.07,0-.11-.06-.33-.08-.5c-.09-.63-.18-1.25-.26-1.88,0-.2-.06-.42-.07-.63h0l.11,0,0,0,.07,0s0,0,0-.05a.05.05,0,0,0,0,0,.13.13,0,0,0,0-.12.3.3,0,0,0-.15-.12l-.06,0a1.15,1.15,0,0,1,.06-.17,1.69,1.69,0,0,1,.41-.39l.46-.34,1.47-1.21.47-.39c.56-.46,1.12-.92,1.67-1.4l.06-.05c.56-.48,1.1-1,1.62-1.49h0l.27,0h0a1.53,1.53,0,0,0,.3,0,2,2,0,0,0,.76-.48,7.89,7.89,0,0,0,1.52-1.88,8.29,8.29,0,0,0,.93-2.26l-.36-.09h0c.19-.34.38-.69.56-1,0,.13.07.27.11.4a11.34,11.34,0,0,0,3.51,5.35,22.39,22.39,0,0,0-1.58,2.5,4.57,4.57,0,0,0-.38,2.28,1.68,1.68,0,0,0,1.23.09h.25a3.32,3.32,0,0,0,.58-.4c.13-.1.25-.21.37-.32l.32-.37c.06-.07.1-.14.15-.21a6.91,6.91,0,0,1,.44-.62c.16-.19.37-.28.52-.48a3.54,3.54,0,0,0,.49-.87l0-.07a9.85,9.85,0,0,0,3.31.86c5.51.46,10-3.41,12.35-7.23s4-8.2,8.43-10.78c5.11-3,12.51-2.57,18.42-.6s10.92,5.22,16.46,7.74a71.79,71.79,0,0,0,36.3,5.71C237.06,127.18,238.62,126.47,238,125.7Zm-101.86-5c.25-.71.48-1.43.68-2.16a6,6,0,0,0,.2-.88c0-.17.09-.34.12-.51a.33.33,0,0,0,.37-.35.07.07,0,0,0,0,0l.17.1c.12.11.2.25.31.37a5.82,5.82,0,0,1,.56.81c.43.73.87,1.46,1.31,2.19.22.37.43.75.68,1.1h0l-.57.12a1,1,0,0,0,.64.56,7.16,7.16,0,0,1-.17.7l-1.18,4.42a10.7,10.7,0,0,1-1.29-1.21,1.85,1.85,0,0,1-.5-.7l-.12-.42-.07-.2c-.05-.2-.11-.4-.17-.59l-.51-1.76h0l-.42-1.46Z"/></g><path class="cls-5" d="M129.59,120.07v0a17.1,17.1,0,0,0-.26,2.47,4.9,4.9,0,0,0,0,1.21c0,.13.13.24.17.37s.11.38.17.57a11.14,11.14,0,0,0,9.69,7.74c5.77.46,10.44-3.41,12.95-7.23s4.23-8.2,8.83-10.78c5.36-3,13.11-2.57,19.32-.6s11.44,5.22,17.25,7.74a78.57,78.57,0,0,0,38.06,5.71c1.23-.12,2.87-.83,2.22-1.6a2.26,2.26,0,0,0-1.52-.49c-8-.68-16.13-.91-23.79-2.67-10.63-2.45-19.59-7.68-29.67-11.16a45.06,45.06,0,0,0-12.59-2.68c-4.39-.2-9,.59-12.35,2.66-2.73,1.69-4.44,4.06-6.09,6.38l-4,5.57c-1.84,2.58-4.4,5.51-8.39,5.6a8.73,8.73,0,0,1-6.52-3,1.84,1.84,0,0,1-.53-.7c0-.14-.09-.28-.13-.42l-.24-.8-1-3.21L131,120c-.09-.28-.26-.62-.64-.64a.7.7,0,0,0-.57.24A1,1,0,0,0,129.59,120.07Z"/><g class="cls-3"><path class="cls-4" d="M129.59,120.07v0a17.1,17.1,0,0,0-.26,2.47,4.9,4.9,0,0,0,0,1.21c0,.13.13.24.17.37s.11.38.17.57a11.14,11.14,0,0,0,9.69,7.74c5.77.46,10.44-3.41,12.95-7.23s4.23-8.2,8.83-10.78c5.36-3,13.11-2.57,19.32-.6s11.44,5.22,17.25,7.74a78.57,78.57,0,0,0,38.06,5.71c1.23-.12,2.87-.83,2.22-1.6a2.26,2.26,0,0,0-1.52-.49c-1.48-.13-3-.24-4.45-.35a12.87,12.87,0,0,0-1.51-.15,17.36,17.36,0,0,0-2,.4,37.31,37.31,0,0,1-8.24.5A36.79,36.79,0,0,1,215,125a9.32,9.32,0,0,0-2.37-.43,13.55,13.55,0,0,1-6.39-1.63q-13.62-6.06-27.78-10.77a25.57,25.57,0,0,0-7.4-1.63,20.86,20.86,0,0,0-8.09,1.78,22.55,22.55,0,0,0-7.19,4.27c-2.39,2.25-4,5.21-5.84,7.9s-4.28,5.28-7.45,6.12a8.37,8.37,0,0,1-4.6-.15,9,9,0,0,1-3.92-2.47,6.13,6.13,0,0,1-1.32-1.94,3.49,3.49,0,0,1-.12-.85,6.14,6.14,0,0,0-.29-1.12l-.54-1.76a6,6,0,0,1-.45-1.46L131,120c-.09-.28-.26-.62-.64-.64a.7.7,0,0,0-.57.24A1,1,0,0,0,129.59,120.07Z"/></g><path class="cls-6" d="M136.07,99.53a8,8,0,1,0-15.9,0,8.22,8.22,0,0,0,.28,2.09,8,8,0,0,0,2.19,3.66,11.93,11.93,0,0,0,1.63,1.19c.25.17.55.43.47.77s-.53.38-.87.41a11.43,11.43,0,0,0-3.44,1.1l-1.56.68-1.54.67-.89.39a1.46,1.46,0,0,1-.45.18,3.21,3.21,0,0,1-.75-.06c-.5-.08-1-.21-1.49-.32a22.34,22.34,0,0,0-4.08-.53c-.67,0-1.35,0-2,0a.86.86,0,0,1-.23,0,8.32,8.32,0,0,1-1.45-.59c-.37-.22-.7-.49-1.07-.7a6.48,6.48,0,0,0-4-.57,2.21,2.21,0,0,0-1,.31.88.88,0,0,0-.39.93,1.3,1.3,0,0,0,.8.68,16.08,16.08,0,0,0,3.76,1.34c.88.15,1.78.16,2.64.36a7.46,7.46,0,0,1,1.22.46c.43.17.87.34,1.32.49.71.25,1.44.47,2.18.66a26.7,26.7,0,0,0,2.66.55,9.87,9.87,0,0,0,1.33.17,1.84,1.84,0,0,0,.4-.06c.21,0,.44,0,.66,0h.06l3,0a1.73,1.73,0,0,1,1,.19.72.72,0,0,1,.22.92c-.19.5-.38,1-.56,1.49-.37,1-.71,2.06-1.06,3.09a6,6,0,0,1-1.09,2.22c-1,1.11-2.49.87-3.8.79-.91-.06-1.81-.09-2.72-.12a6,6,0,0,0-1.74.12,3,3,0,0,0-1.09.65,6.64,6.64,0,0,0-.62.57l-1.38,1.38-2.76,2.78-1.69,1.69a2.78,2.78,0,0,1-1.79,1l-2.52.59a2.25,2.25,0,0,0-1.06.43c-.44.41-.37,1-.38,1.51a.49.49,0,0,0,0,.21.37.37,0,0,0,.22.17,2.84,2.84,0,0,0,1.63.19,6,6,0,0,1,1.4-.23,4.34,4.34,0,0,1,1.56.69,1.56,1.56,0,0,0,1.62.09,2,2,0,0,0,.41-.5l.42-.65c.1-.15.24-.25.32-.4a1.41,1.41,0,0,1,.22-.4l.21-.24c.14-.15.29-.29.44-.43a11.75,11.75,0,0,1,.93-.79c.65-.51,1.33-1,2-1.46a7.46,7.46,0,0,0,1.09-.83,1.52,1.52,0,0,0,.22-.34,1.6,1.6,0,0,1,.44-.42,3.11,3.11,0,0,1,2.11-.41c.44,0,.87.1,1.31.1,1.72,0,3.45-.07,5.17,0,.22,0,.74,0,.66.38a.74.74,0,0,1-.36.42,14,14,0,0,0-4.74,5.89,2.34,2.34,0,0,0-.25,1.34,4.86,4.86,0,0,0,.71,1.35c.26.42.51.85.75,1.28.5.86,1,1.73,1.44,2.61a3.19,3.19,0,0,1,.5,1.73,3.82,3.82,0,0,1-.41,1.11,3.58,3.58,0,0,0-.4,2.25,1.6,1.6,0,0,0,1.67,1.29,1.94,1.94,0,0,0,1.15-.86,8.08,8.08,0,0,0,.77-1.56l.83-2a1.9,1.9,0,0,0,.21-.8c0-.77-.81-1.25-1.21-1.91a3.78,3.78,0,0,1-.43-1.49c-.1-.63-.19-1.25-.27-1.88a1.79,1.79,0,0,1,.07-1.25,4.63,4.63,0,0,1,.91-.73l1.54-1.21.49-.39a31.52,31.52,0,0,0,5.07-4.58c.16-.18.33-.36.48-.54.28-.34.46-.74.71-1.11s.47-.72.7-1.09c.45-.74.87-1.5,1.25-2.28a29.1,29.1,0,0,0,1.87-4.85c.17-.63.33-1.26.47-1.9,0,0,.39.19.42.21a3.68,3.68,0,0,1,.32.37,4.66,4.66,0,0,1,.59.81l1.37,2.19c.23.37.46.75.72,1.1a.46.46,0,0,1,.11.28,3.59,3.59,0,0,1-.22,1.11l-1.42,5.07a10.24,10.24,0,0,1-.62,1.79c-.54,1.06-1.45,1.9-2,3a4.47,4.47,0,0,0-.4,2.28,2.15,2.15,0,0,0,2.17-.31,4.29,4.29,0,0,0,.72-.69c.22-.27.38-.58.61-.83s.39-.28.55-.48a3.65,3.65,0,0,0,.52-.87,10.72,10.72,0,0,0,.39-1.58,6.12,6.12,0,0,1,.64-1.54,25.31,25.31,0,0,0,1.48-3.37l0-.11a23.57,23.57,0,0,0,.75-2.61,3.19,3.19,0,0,0,.17-1.18A8.89,8.89,0,0,0,139,120l-1.58-4.81q-.27-.83-.57-1.65a16.59,16.59,0,0,0-2-4.07,8.19,8.19,0,0,0-1.5-1.61,4.79,4.79,0,0,0-.89-.6c-.23-.11-.84-.3-.88-.56a.68.68,0,0,1,.41-.27A8,8,0,0,0,136.07,99.53Z"/><path class="cls-7" d="M133.84,99.73a4.57,4.57,0,0,0-.78-2.22,6.82,6.82,0,0,0-2.69-2.08,10.65,10.65,0,0,0-3.09-1,8.25,8.25,0,0,0-3.56.29,9.11,9.11,0,0,0-1.67.71,3.86,3.86,0,0,0-1.33,1,3.5,3.5,0,0,0-.3,1.12,8,8,0,0,0,0,4.07,7.49,7.49,0,0,0,2,3.52,2.84,2.84,0,0,0,.74.42,8.83,8.83,0,0,0,1.74.56,8,8,0,0,0,4.63-.37,6.75,6.75,0,0,0,3.75-3.33A5.33,5.33,0,0,0,133.84,99.73Z"/><path class="cls-8" d="M103.71,131.62a10.22,10.22,0,0,0-1.24-.47,5.43,5.43,0,0,1-1.1-.56.75.75,0,0,1-.23-.24c-.13-.26.13-.58.42-.61a1.28,1.28,0,0,1,.81.26,21.06,21.06,0,0,1,2.2,1.69c.17.14.59.75.07.67-.18,0-.27-.17-.38-.29A1.84,1.84,0,0,0,103.71,131.62Z"/><path class="cls-8" d="M117.45,140.7l1.61-1c.28-.17.66-.34.92-.14.18.53-.32,1-.76,1.36a8.75,8.75,0,0,1-1.76,1.12c-.52.22-1.19,0-.85-.64A2,2,0,0,1,117.45,140.7Z"/><path class="cls-8" d="M136.18,130.59l-1.58-.41a2.14,2.14,0,0,1-.92-.41.72.72,0,0,1-.16-.92c.25-.32.77-.24,1.11,0a6.84,6.84,0,0,0,1,.73c.22.09.47.12.7.2a.76.76,0,0,1,.53.45c.07.23-.11.53-.35.5"/><path class="cls-8" d="M106.14,112.19a1.29,1.29,0,0,0,.93-.57,4.08,4.08,0,0,0,.48-1,2.58,2.58,0,0,0,.21-1,.86.86,0,0,0-.56-.8c-.49-.13-.93.34-1.11.81a5.47,5.47,0,0,0-.19,2.35C105.91,112.14,106,112.05,106.14,112.19Z"/><path class="cls-8" d="M124.08,107.68a.55.55,0,0,1,.16-1.09,2.3,2.3,0,0,1,.73.14,9.69,9.69,0,0,0,5.52,0,6.57,6.57,0,0,1,1.61-.41.54.54,0,0,1,.36.06c.29.2.08.65.14,1-2.19.66-4.51.33-6.75.36l-.91,0A2.26,2.26,0,0,1,124.08,107.68Z"/><path class="cls-8" d="M122.13,110.14a5.13,5.13,0,0,0,.33-.76c.08-.23.13-.48.2-.72a3.49,3.49,0,0,1,.77-1.33.92.92,0,0,1,.64,1,2.61,2.61,0,0,1-.51,1.2l-2.27,3.61-.29.44c-.07.12-.17.39-.29.47s-.22,0-.26-.19a.78.78,0,0,1,.13-.64c.16-.31.31-.63.47-.94Z"/><path class="cls-8" d="M131.69,116.07a20.85,20.85,0,0,1,.31-7.27,2.83,2.83,0,0,1,.51-1.08,1.25,1.25,0,0,1,1-.48.79.79,0,0,1,.7.81,1.42,1.42,0,0,1-.39.68,8,8,0,0,0-1.77,6,7.62,7.62,0,0,0,.2,1.06,7.15,7.15,0,0,1,.35,1.08.37.37,0,0,1-.54.32C131.74,117,131.72,116.41,131.69,116.07Z"/><path class="cls-8" d="M124.86,129.94a1.59,1.59,0,0,0,1.92-.35,8.28,8.28,0,0,0,2.57-4.14,28.22,28.22,0,0,1-6.39-2.19c-1.72-.84-3.51-2.06-3.93-3.9,0,.07-.47.53-.54.61s-.33.43-.48.65-.29.47-.43.71a2.31,2.31,0,0,0-.32.65,1.84,1.84,0,0,0,.17.64c.07.22.16.44.24.66s.25.67.36,1a4.93,4.93,0,0,1,.21.94,5.23,5.23,0,0,1-.11,1.93,1.42,1.42,0,0,1-.07.22c.24,0,.43.2.61.35a2,2,0,0,0,.89.45,7.45,7.45,0,0,0,1,.09,4.4,4.4,0,0,1,1.83.57c.24.14.5.23.75.36s.61.3.92.43S124.57,129.85,124.86,129.94Z"/><path class="cls-8" d="M126.3,110.55a1.65,1.65,0,1,1-1.65,1.64,1.64,1.64,0,0,1,1.65-1.64m0-1a2.65,2.65,0,1,0,2.64,2.64,2.64,2.64,0,0,0-2.64-2.64Z"/><path class="cls-9" d="M114.87,112.62a4.31,4.31,0,0,1,0-1.34,1.54,1.54,0,0,1,.7-1.09.33.33,0,0,1,.34,0,.37.37,0,0,1,.12.22,5.41,5.41,0,0,1,0,2.3c-.06.34-.35,1.74-1,1.13C114.85,113.56,114.9,113,114.87,112.62Z"/><path class="cls-9" d="M138.05,122.21c-.43,0-.87,0-1.3,0-.6,0-1.32-.15-1.54-.71a13.78,13.78,0,0,1,3.84-.39,1,1,0,0,1,.56.14c.42.29,0,.63-.26.78A3.17,3.17,0,0,1,138.05,122.21Z"/><path class="cls-9" d="M108.52,122.77a.55.55,0,0,1,0-.44.42.42,0,0,1,.26-.14,2,2,0,0,1,1.14,0l.08,2.63,0,1.32a5.82,5.82,0,0,1,0,1.25c-.24-.14-.38-.77-.48-1s-.29-.79-.43-1.19C108.93,124.4,108.7,123.59,108.52,122.77Z"/><path class="cls-9" d="M113.32,136.24a1.36,1.36,0,0,1-.39-.94,1.33,1.33,0,0,1,.12-.68c.15-.24.49-.16.76-.17a10.71,10.71,0,0,1,2.19.22,11.1,11.1,0,0,1,2.89.87.33.33,0,0,1,.16.12c.09.2-.21.32-.43.32a6,6,0,0,0-1,0l-.27.08a9.08,9.08,0,0,1-1.88,0,6.56,6.56,0,0,0-1.76.25A.42.42,0,0,1,113.32,136.24Z"/><g class="cls-3"><path class="cls-4" d="M139.61,121.22a.69.69,0,0,0-.31-.12A10,10,0,0,0,139,120q-.79-2.42-1.58-4.81-.27-.83-.57-1.65a16.59,16.59,0,0,0-2-4.07,10,10,0,0,0-.84-1,1,1,0,0,0,.21-.45.79.79,0,0,0-.7-.81,1.13,1.13,0,0,0-.75.22l-.2-.12c-.06-.34.15-.79-.14-1a.39.39,0,0,0-.2-.06,7.94,7.94,0,0,0,2.81-10.64,7.94,7.94,0,0,0-5.25-3.89,9.2,9.2,0,0,0-1-.12,2.93,2.93,0,0,0-.72-.07c-.19,0-.41.18-.58.19,3.47-.14,6.33,3.09,7.08,6.48a6.5,6.5,0,0,1,.05,3.1,9.19,9.19,0,0,1-1.82,3.14c-.94,1.21-2,2.5-3.51,2.83-1.77.4-3.86-.63-5.32.46-1.25.93-1.2,2.89-2.25,4-1.4,1.53-3.89,1-5.82.23l-.26.81a2.43,2.43,0,0,0-.55-1.14c.14.75-.94,1.07-1.7,1a13,13,0,0,1-5.83-2.12c.07.61-1.09.75-1.16.15a10.5,10.5,0,0,1-7-2.08.47.47,0,0,0-.07.72,4.05,4.05,0,0,0,.93.41,16.08,16.08,0,0,0,3.76,1.34c.61.11,1.23.15,1.85.23,0,.2,0,.41,0,.61s.12.09.24.23a1.29,1.29,0,0,0,.93-.57l.81.32c.43.17.87.34,1.32.49.71.25,1.44.47,2.18.66a26.7,26.7,0,0,0,2.66.55l1.06.17c.24.24.43.16.57,0l.1,0c.21,0,.44,0,.66,0h.06l3,0a3.09,3.09,0,0,1,1.13.2,3.52,3.52,0,0,0,.39.16.54.54,0,0,0,.35,0,1.34,1.34,0,0,0,.58-.64l2.56-4.89a1.24,1.24,0,0,1,.41-.52,1.27,1.27,0,0,1,.92,0l3.74.86a5.56,5.56,0,0,1-.86,4.12,16.49,16.49,0,0,1-2.89,3.19,18.76,18.76,0,0,1-5.3,3.88,7.34,7.34,0,0,0-1,.46,3.27,3.27,0,0,0-.74.79c-.51.58-1.18,1.27-.89,2.12l-6.6.21a6.14,6.14,0,0,0-2.18.33,6.91,6.91,0,0,0-2.37,2,29,29,0,0,1-4.73,4.2l.16.46-4.68,1.13a1.37,1.37,0,0,0,.59,1.61,1.17,1.17,0,0,0,.64.09c.16,0,.32-.05.48-.07a3.16,3.16,0,0,1,2.08.65,1.56,1.56,0,0,0,1.62.09,2,2,0,0,0,.41-.5l.42-.65c.1-.15.24-.25.32-.4a1.41,1.41,0,0,1,.22-.4l.06-.08a.48.48,0,0,0,.3.2c.42.06.22-.33,0-.55l.25-.24a11.75,11.75,0,0,1,.93-.79c.65-.51,1.33-1,2-1.46a7.46,7.46,0,0,0,1.09-.83,1.52,1.52,0,0,0,.22-.34,1.6,1.6,0,0,1,.44-.42,3.11,3.11,0,0,1,2.11-.41c.44,0,.87.1,1.31.1,1.72,0,3.45-.07,5.17,0l.4,0a.43.43,0,0,1,.81-.15c.16.39-.12.8-.37,1.12l-4.63,5.81a1.94,1.94,0,0,1,.4,1.28,8.27,8.27,0,0,0,1.79,4.4,5,5,0,0,1,1.5,2.45,6.39,6.39,0,0,1-.58,2.31,1.71,1.71,0,0,0,.16,1.56.85.85,0,0,0,1.16.09,4.89,4.89,0,0,0,.85-1.67l.83-2a1.9,1.9,0,0,0,.21-.8c0-.61-.5-1-.91-1.51a.84.84,0,0,0,.16-.77.64.64,0,0,0-.64,0,4.67,4.67,0,0,1-.25-1.12c-.1-.63-.19-1.25-.27-1.88,0-.2-.07-.42-.08-.63.19,0,.38-.14.31-.3a.33.33,0,0,0-.16-.12l-.07,0a1.22,1.22,0,0,1,.07-.17,4.63,4.63,0,0,1,.91-.73l1.54-1.21.49-.39c1.2-.94,2.41-1.89,3.51-2.94a1.58,1.58,0,0,0,.65,0,2.08,2.08,0,0,0,.79-.48,8.28,8.28,0,0,0,2.57-4.14l-.38-.09c.38-.64.75-1.29,1.07-2a29.1,29.1,0,0,0,1.87-4.85,2.82,2.82,0,0,0,.17-1.63c-.11-.41-.17-.84-.24-1.25a16.59,16.59,0,0,1-.17-2.54c1.39-.43,2.7.8,3.58,2a10.53,10.53,0,0,1,2.28,4.64c.52,3.53-2.05,6.75-2.62,10.28a2.14,2.14,0,0,1-.68,1.48,13.61,13.61,0,0,0-2.11,3.33c0,.09.65.14.73.11a4.09,4.09,0,0,0,.62-.4,4.29,4.29,0,0,0,.72-.69c.22-.27.38-.58.61-.83s.39-.28.55-.48a3.65,3.65,0,0,0,.52-.87,8.29,8.29,0,0,0,.31-1.08l.3.13c.24,0,.42-.27.35-.5a.75.75,0,0,0-.47-.43,7.51,7.51,0,0,1,.54-1.24,25.31,25.31,0,0,0,1.48-3.37l0-.11a23.57,23.57,0,0,0,.75-2.61c0-.14.07-.29.11-.44l.07,0C139.65,121.85,140,121.51,139.61,121.22Z"/></g><circle class="cls-10" cx="58.41" cy="57.68" r="7.15"/><circle class="cls-11" cx="72.75" cy="63.88" r="1.76"/><path class="cls-10" d="M47.08,153.88c2.94-.45,5.91.6,8.57,1.93a4.09,4.09,0,0,0,1.92.61,4.64,4.64,0,0,0,1.65-.5,14,14,0,0,1,13.66,1.64c1.19.89,2.23,2,3.47,2.79A10,10,0,0,0,81.61,162c1.55,0,3.6,0,4.08,1.47s-1.34,2.75-2.88,3.19a27.4,27.4,0,0,1-13.49.42c-2-.44-4-1.09-5.93-.65A16.84,16.84,0,0,0,60,167.89a15.62,15.62,0,0,1-12.43.33c-2.33-.95-4.46-2.48-6.94-2.88-1.72-.28-3.5,0-5.21-.32s-3.48-1.58-3.48-3.33c0-.36,4-.92,4.41-1,1.12-.14,2.54,0,3.58-.5a3.7,3.7,0,0,0,1.36-1.73,9.42,9.42,0,0,1,1.94-2.77A7.65,7.65,0,0,1,47.08,153.88Z"/><path class="cls-12" d="M177.88,74.51c-2.4-.44-4.73-2.2-5-4.61a1.88,1.88,0,0,1,.27-1.38,2.14,2.14,0,0,1,1.5-.67,10.19,10.19,0,0,1,4.11.3,1.16,1.16,0,0,0,1,0,1,1,0,0,0,.22-.27,7,7,0,0,1,9.25-1.81c1.28.85,2.3,2.48,1.7,3.9.64.67,1.71-.13,2.63-.22,1.46-.15,2.42,1.85,1.73,3.15a3.91,3.91,0,0,1-3.79,1.71c-2.18-.14-4.29-1.5-6.48-.9S180.31,75,177.88,74.51Z"/><path class="cls-13" d="M159.64,170.31c.56.73,1.65.74,2.49,1.14A3.63,3.63,0,0,1,164,174a10.67,10.67,0,0,1,0,3.29c.93-.9.88-2.39,1.48-3.53a3.47,3.47,0,0,1,5.28-.79c.14-1-.84-1.75-1.55-2.46a6.54,6.54,0,0,1-1.27-7.12,5.23,5.23,0,0,0-1.48,2.06,10.08,10.08,0,0,1-6.84,4.82Z"/><path class="cls-12" d="M169.57,181.46a4.34,4.34,0,0,0,.45-2.24,1.74,1.74,0,0,1,.55,1,1.39,1.39,0,0,0,.16.58.88.88,0,0,0,.67.26l1.45.14c-.46.51-1.34.36-1.85.82a1.76,1.76,0,0,0-.44.79,7.73,7.73,0,0,0-.29,1.35,2.29,2.29,0,0,0-.14-.94c-.35-.73-1.33-.85-2.15-.86l1.5-.82"/><path class="cls-12" d="M130.85,57.43a1.5,1.5,0,0,0,0-3,1.5,1.5,0,0,0,0,3Z"/><path class="cls-12" d="M84.61,138.25a1.5,1.5,0,0,0,0-3,1.5,1.5,0,0,0,0,3Z"/><path class="cls-12" d="M153.08,211a1.5,1.5,0,0,0,0-3,1.5,1.5,0,0,0,0,3Z"/><path class="cls-12" d="M40.85,190.14a1.5,1.5,0,0,0,0-3,1.5,1.5,0,0,0,0,3Z"/><path class="cls-12" d="M148.5,17.55a1.5,1.5,0,0,0,0-3,1.5,1.5,0,0,0,0,3Z"/><path class="cls-12" d="M97,47.53a1.13,1.13,0,0,0,0-2.25,1.13,1.13,0,0,0,0,2.25Z"/><path class="cls-12" d="M38,119.17a1.13,1.13,0,0,0,0-2.25,1.13,1.13,0,0,0,0,2.25Z"/><path class="cls-12" d="M198.26,173.88a1.13,1.13,0,0,0,0-2.25,1.13,1.13,0,0,0,0,2.25Z"/><path class="cls-12" d="M115,179.15a.75.75,0,0,0,0-1.5.75.75,0,0,0,0,1.5Z"/><path class="cls-12" d="M88.85,110a.75.75,0,0,0,0-1.5.75.75,0,0,0,0,1.5Z"/><path class="cls-12" d="M161.2,53.5a.75.75,0,0,0,0-1.5.75.75,0,0,0,0,1.5Z"/><path class="cls-12" d="M71.56,170a.75.75,0,0,0,0-1.5.75.75,0,0,0,0,1.5Z"/><path class="cls-12" d="M116,35.48a.38.38,0,0,0,0-.75.38.38,0,0,0,0,.75Z"/><path class="cls-12" d="M69.08,84.19a.38.38,0,0,0,0-.75.38.38,0,0,0,0,.75Z"/><path class="cls-12" d="M77.2,117a.38.38,0,0,0,0-.75.38.38,0,0,0,0,.75Z"/><path class="cls-12" d="M130.85,155.84a.38.38,0,0,0,0-.75.38.38,0,0,0,0,.75Z"/><path class="cls-12" d="M97.67,151.6a.38.38,0,0,0,0-.75.38.38,0,0,0,0,.75Z"/><path class="cls-12" d="M171.44,193.6a.38.38,0,0,0,0-.75.38.38,0,0,0,0,.75Z"/><path class="cls-12" d="M133,198.54a.38.38,0,0,0,0-.75.38.38,0,0,0,0,.75Z"/><path class="cls-12" d="M38,170a.38.38,0,0,0,0-.75.38.38,0,0,0,0,.75Z"/><path class="cls-12" d="M176,30.19a.38.38,0,0,0,0-.75.38.38,0,0,0,0,.75Z"/><path class="cls-12" d="M73,46.07a.38.38,0,0,0,0-.75.38.38,0,0,0,0,.75Z"/><g class="cls-3"><path class="cls-4" d="M120,20c55.14,0,100,44.72,100,99.68s-44.86,99.68-100,99.68S20,174.64,20,119.68,64.86,20,120,20m0-20C53.73,0,0,53.58,0,119.68S53.73,239.36,120,239.36s120-53.58,120-119.68S186.27,0,120,0Z"/></g><path class="cls-4" d="M120,10A109.68,109.68,0,1,1,42.21,197.22,109.68,109.68,0,0,1,120,10m0-10C53.73,0,0,53.58,0,119.68S53.73,239.36,120,239.36s120-53.58,120-119.68S186.27,0,120,0Z"/></g></g></g></g></svg>